<svg xmlns="http://www.w3.org/2000/svg" xmlns:xlink="http://www.w3.org/1999/xlink" width="500" zoomAndPan="magnify" viewBox="0 0 375 374.999991" height="500" preserveAspectRatio="xMidYMid meet" version="1.2"><defs/><g id="45973a5466"><rect x="0" width="375" y="0" height="374.999991" style="fill:#ffffff;fill-opacity:1;stroke:none;"/><rect x="0" width="375" y="0" height="374.999991" style="fill:#e4e2dc;fill-opacity:1;stroke:none;"/><g style="fill:#000000;fill-opacity:1;"><g transform="translate(72.952844, 210.167715)"><path style="stroke:none" d="M 22.4375 -44.1875 L 22.4375 -12.484375 C 22.4375 -8.160156 21.25 -4.863281 18.875 -2.59375 C 16.5 -0.332031 13.097656 0.796875 8.671875 0.796875 C 7.492188 0.796875 6.332031 0.65625 5.1875 0.375 C 4.050781 0.09375 3.085938 -0.25 2.296875 -0.65625 C 1.515625 -1.070312 0.8125 -1.492188 0.1875 -1.921875 C -0.4375 -2.359375 -0.890625 -2.71875 -1.171875 -3 L -1.65625 -3.421875 L 1.546875 -11.84375 C 3.660156 -9.84375 5.570312 -8.84375 7.28125 -8.84375 C 8.820312 -8.84375 10.054688 -9.347656 10.984375 -10.359375 C 11.910156 -11.378906 12.375 -12.941406 12.375 -15.046875 L 12.375 -44.1875 Z M 22.4375 -44.1875 "/></g></g><g style="fill:#000000;fill-opacity:1;"><g transform="translate(93.51611, 210.167715)"><path style="stroke:none" d="M 37.171875 -44.1875 L 37.171875 -15.6875 C 37.171875 -10.257812 35.707031 -6.15625 32.78125 -3.375 C 29.851562 -0.59375 25.566406 0.796875 19.921875 0.796875 C 14.285156 0.796875 10 -0.59375 7.0625 -3.375 C 4.132812 -6.15625 2.671875 -10.257812 2.671875 -15.6875 L 2.671875 -44.1875 L 12.75 -44.1875 L 12.75 -18.640625 C 12.75 -15.066406 13.3125 -12.582031 14.4375 -11.1875 C 15.5625 -9.800781 17.390625 -9.109375 19.921875 -9.109375 C 22.460938 -9.109375 24.296875 -9.800781 25.421875 -11.1875 C 26.546875 -12.582031 27.109375 -15.066406 27.109375 -18.640625 L 27.109375 -44.1875 Z M 37.171875 -44.1875 "/></g></g><g style="fill:#000000;fill-opacity:1;"><g transform="translate(128.806622, 210.167715)"><path style="stroke:none" d="M 19.5 -45 C 21.882812 -45 24.21875 -44.648438 26.5 -43.953125 C 28.789062 -43.253906 30.492188 -42.566406 31.609375 -41.890625 L 33.203125 -40.8125 L 29.140625 -32.78125 C 28.816406 -33 28.367188 -33.273438 27.796875 -33.609375 C 27.222656 -33.953125 26.148438 -34.40625 24.578125 -34.96875 C 23.015625 -35.539062 21.550781 -35.828125 20.1875 -35.828125 C 18.507812 -35.828125 17.210938 -35.46875 16.296875 -34.75 C 15.390625 -34.039062 14.9375 -33.082031 14.9375 -31.875 C 14.9375 -31.257812 15.148438 -30.691406 15.578125 -30.171875 C 16.015625 -29.660156 16.75 -29.109375 17.78125 -28.515625 C 18.820312 -27.929688 19.734375 -27.457031 20.515625 -27.09375 C 21.296875 -26.738281 22.507812 -26.207031 24.15625 -25.5 C 27.007812 -24.28125 29.445312 -22.625 31.46875 -20.53125 C 33.488281 -18.445312 34.5 -16.082031 34.5 -13.4375 C 34.5 -10.90625 34.039062 -8.691406 33.125 -6.796875 C 32.21875 -4.910156 30.96875 -3.429688 29.375 -2.359375 C 27.789062 -1.285156 26.03125 -0.492188 24.09375 0.015625 C 22.164062 0.535156 20.082031 0.796875 17.84375 0.796875 C 15.90625 0.796875 14.007812 0.597656 12.15625 0.203125 C 10.300781 -0.179688 8.75 -0.664062 7.5 -1.25 C 6.25 -1.84375 5.125 -2.425781 4.125 -3 C 3.125 -3.570312 2.390625 -4.054688 1.921875 -4.453125 L 1.234375 -5.03125 L 6.265625 -13.5 C 6.691406 -13.144531 7.28125 -12.6875 8.03125 -12.125 C 8.78125 -11.570312 10.109375 -10.832031 12.015625 -9.90625 C 13.929688 -8.976562 15.625 -8.515625 17.09375 -8.515625 C 21.332031 -8.515625 23.453125 -9.960938 23.453125 -12.859375 C 23.453125 -13.460938 23.300781 -14.019531 23 -14.53125 C 22.695312 -15.050781 22.160156 -15.570312 21.390625 -16.09375 C 20.628906 -16.613281 19.953125 -17.023438 19.359375 -17.328125 C 18.773438 -17.628906 17.8125 -18.09375 16.46875 -18.71875 C 15.132812 -19.34375 14.144531 -19.816406 13.5 -20.140625 C 10.820312 -21.460938 8.75 -23.113281 7.28125 -25.09375 C 5.820312 -27.070312 5.09375 -29.207031 5.09375 -31.5 C 5.09375 -35.457031 6.554688 -38.695312 9.484375 -41.21875 C 12.410156 -43.738281 15.75 -45 19.5 -45 Z M 19.5 -45 "/></g></g><g style="fill:#000000;fill-opacity:1;"><g transform="translate(160.241282, 210.167715)"><path style="stroke:none" d="M 0.421875 -35.34375 L 0.421875 -44.1875 L 31.5 -44.1875 L 31.5 -35.34375 L 21 -35.34375 L 21 0 L 10.921875 0 L 10.921875 -35.34375 Z M 0.421875 -35.34375 "/></g></g><path style="fill:none;stroke-width:10;stroke-linecap:butt;stroke-linejoin:miter;stroke:#292929;stroke-opacity:1;stroke-miterlimit:4;" d="M 0.00213874 5.001028 L 84.43449 5.001028 " transform="matrix(0.746252,0,0,0.746252,60.775748,220.060942)"/><path style="fill:none;stroke-width:10;stroke-linecap:butt;stroke-linejoin:miter;stroke:#292929;stroke-opacity:1;stroke-miterlimit:4;" d="M 0.00199059 4.999393 L 82.465593 4.999393 " transform="matrix(0,0.745878,-0.745878,0,68.271907,163.467265)"/><path style="fill:none;stroke-width:10;stroke-linecap:butt;stroke-linejoin:miter;stroke:#292929;stroke-opacity:1;stroke-miterlimit:4;" d="M 0.00224434 5.001156 L 84.434596 5.001156 " transform="matrix(-0.746252,0,0,-0.746252,307.693081,154.931342)"/><path style="fill:none;stroke-width:10;stroke-linecap:butt;stroke-linejoin:miter;stroke:#292929;stroke-opacity:1;stroke-miterlimit:4;" d="M 0.00212234 4.99929 L 82.465725 4.99929 " transform="matrix(0,-0.745878,0.745878,0,300.196919,211.525021)"/><g style="fill:#000000;fill-opacity:1;"><g transform="translate(195.738221, 209.110959)"><path style="stroke:none" d="M 5.046875 0 L 5.046875 -44.09375 L 14.171875 -44.09375 C 19.335938 -44.09375 23.078125 -43.273438 25.390625 -41.640625 C 28.078125 -39.753906 29.421875 -36.519531 29.421875 -31.9375 C 29.421875 -24.289062 26.476562 -19.628906 20.59375 -17.953125 C 18.707031 -17.410156 16.566406 -17.140625 14.171875 -17.140625 L 9.328125 -17.140625 L 9.328125 0 Z M 9.328125 -40.640625 L 9.328125 -20.59375 L 13.859375 -20.59375 C 17.640625 -20.59375 20.460938 -21.421875 22.328125 -23.078125 C 24.203125 -24.742188 25.140625 -27.457031 25.140625 -31.21875 C 25.140625 -34.976562 24.203125 -37.488281 22.328125 -38.75 C 20.460938 -40.007812 17.640625 -40.640625 13.859375 -40.640625 Z M 9.328125 -40.640625 "/></g></g><g style="fill:#000000;fill-opacity:1;"><g transform="translate(223.899267, 209.110959)"><path style="stroke:none" d="M 22.6875 -44.359375 C 35.070312 -44.359375 41.265625 -36.878906 41.265625 -21.921875 C 41.265625 -15.078125 39.5 -9.671875 35.96875 -5.703125 C 32.445312 -1.734375 28.019531 0.25 22.6875 0.25 C 17.007812 0.25 12.617188 -1.300781 9.515625 -4.40625 C 5.898438 -8.101562 4.09375 -13.664062 4.09375 -21.09375 C 4.09375 -28.53125 5.863281 -34.265625 9.40625 -38.296875 C 12.957031 -42.335938 17.382812 -44.359375 22.6875 -44.359375 Z M 12.59375 -7.4375 C 14.90625 -4.832031 18.269531 -3.53125 22.6875 -3.53125 C 26.84375 -3.53125 30.265625 -5.175781 32.953125 -8.46875 C 35.640625 -11.769531 36.984375 -16.503906 36.984375 -22.671875 C 36.984375 -28.847656 35.578125 -33.492188 32.765625 -36.609375 C 30.410156 -39.253906 27.050781 -40.578125 22.6875 -40.578125 C 18.5625 -40.578125 15.144531 -38.914062 12.4375 -35.59375 C 9.726562 -32.28125 8.375 -27.523438 8.375 -21.328125 C 8.375 -15.128906 9.78125 -10.5 12.59375 -7.4375 Z M 12.59375 -7.4375 "/></g></g><g style="fill:#000000;fill-opacity:1;"><g transform="translate(263.904331, 209.110959)"><path style="stroke:none" d="M 29.359375 -42.96875 L 28.609375 -39.375 C 25.367188 -40.09375 22.613281 -40.453125 20.34375 -40.453125 C 12.195312 -40.453125 8.125 -37.972656 8.125 -33.015625 C 8.125 -31.117188 8.722656 -29.664062 9.921875 -28.65625 C 11.117188 -27.65625 12.628906 -26.828125 14.453125 -26.171875 C 16.285156 -25.523438 18.25 -24.9375 20.34375 -24.40625 C 22.445312 -23.882812 24.398438 -23.179688 26.203125 -22.296875 C 30.453125 -20.203125 32.578125 -16.988281 32.578125 -12.65625 C 32.578125 -8.332031 30.957031 -5.054688 27.71875 -2.828125 C 24.945312 -0.898438 21.296875 0.0625 16.765625 0.0625 C 11.128906 0.0625 6.378906 -1.21875 2.515625 -3.78125 L 4.15625 -7 C 5.289062 -6.195312 6.90625 -5.445312 9 -4.75 C 11.101562 -4.0625 13.144531 -3.71875 15.125 -3.71875 C 18.988281 -3.71875 22.03125 -4.347656 24.25 -5.609375 C 26.9375 -7.160156 28.28125 -9.382812 28.28125 -12.28125 C 28.28125 -14.425781 27.679688 -16.097656 26.484375 -17.296875 C 25.296875 -18.492188 23.785156 -19.457031 21.953125 -20.1875 C 20.128906 -20.925781 18.164062 -21.554688 16.0625 -22.078125 C 13.96875 -22.609375 12.015625 -23.269531 10.203125 -24.0625 C 5.960938 -25.914062 3.84375 -28.664062 3.84375 -32.3125 C 3.84375 -35.96875 5.101562 -38.863281 7.625 -41 C 10.144531 -43.144531 13.710938 -44.21875 18.328125 -44.21875 C 21.898438 -44.21875 25.578125 -43.800781 29.359375 -42.96875 Z M 29.359375 -42.96875 "/></g></g><g style="fill:#000000;fill-opacity:1;"><g transform="translate(127.160576, 226.44426)"><path style="stroke:none" d="M 0.859375 0 L 0.859375 -5.71875 L 3.03125 -5.71875 C 3.382812 -5.71875 3.679688 -5.660156 3.921875 -5.546875 C 4.171875 -5.429688 4.351562 -5.269531 4.46875 -5.0625 C 4.59375 -4.851562 4.65625 -4.609375 4.65625 -4.328125 C 4.65625 -4.078125 4.585938 -3.851562 4.453125 -3.65625 C 4.328125 -3.457031 4.140625 -3.300781 3.890625 -3.1875 L 3.890625 -3.109375 C 4.265625 -3.015625 4.550781 -2.84375 4.75 -2.59375 C 4.945312 -2.34375 5.046875 -2.03125 5.046875 -1.65625 C 5.046875 -1.125 4.890625 -0.710938 4.578125 -0.421875 C 4.265625 -0.140625 3.800781 0 3.1875 0 Z M 3 -3.3125 C 3.3125 -3.3125 3.554688 -3.394531 3.734375 -3.5625 C 3.910156 -3.726562 4 -3.957031 4 -4.25 C 4 -4.550781 3.910156 -4.773438 3.734375 -4.921875 C 3.566406 -5.078125 3.320312 -5.15625 3 -5.15625 L 1.53125 -5.15625 L 1.53125 -3.3125 Z M 3.140625 -0.5625 C 3.953125 -0.5625 4.359375 -0.925781 4.359375 -1.65625 C 4.359375 -2.394531 3.953125 -2.765625 3.140625 -2.765625 L 1.53125 -2.765625 L 1.53125 -0.5625 Z M 3.140625 -0.5625 "/></g></g><g style="fill:#000000;fill-opacity:1;"><g transform="translate(138.4173, 226.44426)"><path style="stroke:none" d="M 2.796875 0 L 2.125 0 L 2.125 -2.25 L 0.15625 -5.71875 L 0.890625 -5.71875 L 2.421875 -3.03125 L 2.515625 -3.03125 L 4.046875 -5.71875 L 4.765625 -5.71875 L 2.796875 -2.25 Z M 2.796875 0 "/></g></g><g style="fill:#000000;fill-opacity:1;"><g transform="translate(149.44746, 226.44426)"><path style="stroke:none" d=""/></g></g><g style="fill:#000000;fill-opacity:1;"><g transform="translate(157.5284, 226.44426)"><path style="stroke:none" d="M 0.96875 0 L 0.234375 0 L 2.015625 -2.9375 L 0.3125 -5.71875 L 1.0625 -5.71875 L 2.5 -3.390625 L 2.59375 -3.390625 L 4.046875 -5.71875 L 4.765625 -5.71875 L 3.0625 -2.9375 L 4.84375 0 L 4.09375 0 L 2.578125 -2.46875 L 2.484375 -2.46875 Z M 0.96875 0 "/></g></g><g style="fill:#000000;fill-opacity:1;"><g transform="translate(168.718716, 226.44426)"><path style="stroke:none" d="M 2.796875 0 L 2.125 0 L 2.125 -2.25 L 0.15625 -5.71875 L 0.890625 -5.71875 L 2.421875 -3.03125 L 2.515625 -3.03125 L 4.046875 -5.71875 L 4.765625 -5.71875 L 2.796875 -2.25 Z M 2.796875 0 "/></g></g><g style="fill:#000000;fill-opacity:1;"><g transform="translate(179.748877, 226.44426)"><path style="stroke:none" d="M 1.53125 -5.71875 L 1.53125 -0.5625 L 4.28125 -0.5625 L 4.28125 0 L 0.859375 0 L 0.859375 -5.71875 Z M 1.53125 -5.71875 "/></g></g><g style="fill:#000000;fill-opacity:1;"><g transform="translate(190.200912, 226.44426)"><path style="stroke:none" d="M 3.140625 0.078125 C 2.640625 0.078125 2.195312 -0.0234375 1.8125 -0.234375 C 1.425781 -0.453125 1.125 -0.78125 0.90625 -1.21875 C 0.6875 -1.65625 0.578125 -2.203125 0.578125 -2.859375 C 0.578125 -3.515625 0.6875 -4.0625 0.90625 -4.5 C 1.125 -4.9375 1.425781 -5.257812 1.8125 -5.46875 C 2.195312 -5.6875 2.640625 -5.796875 3.140625 -5.796875 C 3.628906 -5.796875 4.066406 -5.6875 4.453125 -5.46875 C 4.835938 -5.257812 5.140625 -4.9375 5.359375 -4.5 C 5.585938 -4.0625 5.703125 -3.515625 5.703125 -2.859375 C 5.703125 -2.203125 5.585938 -1.65625 5.359375 -1.21875 C 5.140625 -0.78125 4.835938 -0.453125 4.453125 -0.234375 C 4.066406 -0.0234375 3.628906 0.078125 3.140625 0.078125 Z M 3.140625 -0.546875 C 3.734375 -0.546875 4.1875 -0.726562 4.5 -1.09375 C 4.820312 -1.46875 4.984375 -2.054688 4.984375 -2.859375 C 4.984375 -3.660156 4.820312 -4.242188 4.5 -4.609375 C 4.1875 -4.984375 3.734375 -5.171875 3.140625 -5.171875 C 1.910156 -5.171875 1.296875 -4.398438 1.296875 -2.859375 C 1.296875 -1.316406 1.910156 -0.546875 3.140625 -0.546875 Z M 3.140625 -0.546875 "/></g></g><g style="fill:#000000;fill-opacity:1;"><g transform="translate(202.586543, 226.44426)"><path style="stroke:none" d="M 1.515625 0 L 0.859375 0 L 0.859375 -5.71875 L 1.6875 -5.71875 L 4.46875 -1.34375 L 4.578125 -1.359375 L 4.578125 -5.71875 L 5.21875 -5.71875 L 5.21875 0 L 4.515625 0 L 1.625 -4.671875 L 1.515625 -4.65625 Z M 1.515625 0 "/></g></g><g style="fill:#000000;fill-opacity:1;"><g transform="translate(214.796392, 226.44426)"><path style="stroke:none" d="M 1.484375 0 L 0.859375 0 L 0.859375 -5.71875 L 1.859375 -5.71875 L 3.59375 -0.875 L 3.671875 -0.875 L 5.40625 -5.71875 L 6.359375 -5.71875 L 6.359375 0 L 5.734375 0 L 5.734375 -4.65625 L 5.625 -4.671875 L 3.9375 0 L 3.28125 0 L 1.578125 -4.671875 L 1.484375 -4.65625 Z M 1.484375 0 "/></g></g><g style="fill:#000000;fill-opacity:1;"><g transform="translate(228.146867, 226.44426)"><path style="stroke:none" d="M 5.140625 0 L 4.421875 0 L 3.890625 -1.5625 L 1.46875 -1.5625 L 0.9375 0 L 0.234375 0 L 2.21875 -5.71875 L 3.15625 -5.71875 Z M 2.625 -5.015625 L 1.65625 -2.125 L 3.703125 -2.125 L 2.734375 -5.015625 Z M 2.625 -5.015625 "/></g></g><g style="fill:#000000;fill-opacity:1;"><g transform="translate(239.634059, 226.44426)"><path style="stroke:none" d="M 0.859375 0 L 0.859375 -5.71875 L 2.9375 -5.71875 C 3.320312 -5.71875 3.644531 -5.648438 3.90625 -5.515625 C 4.164062 -5.390625 4.359375 -5.210938 4.484375 -4.984375 C 4.617188 -4.753906 4.6875 -4.484375 4.6875 -4.171875 C 4.6875 -3.816406 4.597656 -3.523438 4.421875 -3.296875 C 4.242188 -3.066406 3.96875 -2.894531 3.59375 -2.78125 L 3.59375 -2.6875 C 3.78125 -2.613281 3.929688 -2.5 4.046875 -2.34375 C 4.160156 -2.1875 4.269531 -1.957031 4.375 -1.65625 L 4.890625 0 L 4.203125 0 L 3.640625 -1.75 C 3.566406 -1.957031 3.484375 -2.117188 3.390625 -2.234375 C 3.304688 -2.347656 3.195312 -2.429688 3.0625 -2.484375 C 2.925781 -2.535156 2.753906 -2.5625 2.546875 -2.5625 L 1.53125 -2.5625 L 1.53125 0 Z M 2.921875 -3.140625 C 3.273438 -3.140625 3.539062 -3.21875 3.71875 -3.375 C 3.894531 -3.539062 3.984375 -3.796875 3.984375 -4.140625 C 3.984375 -4.472656 3.894531 -4.722656 3.71875 -4.890625 C 3.539062 -5.054688 3.273438 -5.140625 2.921875 -5.140625 L 1.53125 -5.140625 L 1.53125 -3.140625 Z M 2.921875 -3.140625 "/></g></g><g style="fill:#000000;fill-opacity:1;"><g transform="translate(251.043126, 226.44426)"><path style="stroke:none" d="M 0.859375 0 L 0.859375 -5.71875 L 1.53125 -5.71875 L 1.53125 -3.21875 L 1.65625 -3.21875 L 4 -5.71875 L 4.734375 -5.71875 L 4.734375 -5.609375 L 2.265625 -2.953125 L 4.9375 -0.09375 L 4.9375 0 L 4.15625 0 L 1.65625 -2.625 L 1.53125 -2.625 L 1.53125 0 Z M 0.859375 0 "/></g></g><g style="fill:#000000;fill-opacity:1;"><g transform="translate(262.202193, 226.44426)"><path style="stroke:none" d=""/></g></g><g style="fill:#000000;fill-opacity:1;"><g transform="translate(270.283133, 226.44426)"><path style="stroke:none" d="M 1.53125 -5.71875 L 1.53125 -0.5625 L 4.28125 -0.5625 L 4.28125 0 L 0.859375 0 L 0.859375 -5.71875 Z M 1.53125 -5.71875 "/></g></g><g style="fill:#000000;fill-opacity:1;"><g transform="translate(280.930481, 226.44426)"><path style="stroke:none" d="M 5.140625 0 L 4.421875 0 L 3.890625 -1.5625 L 1.46875 -1.5625 L 0.9375 0 L 0.234375 0 L 2.21875 -5.71875 L 3.15625 -5.71875 Z M 2.625 -5.015625 L 1.65625 -2.125 L 3.703125 -2.125 L 2.734375 -5.015625 Z M 2.625 -5.015625 "/></g></g><g style="fill:#000000;fill-opacity:1;"><g transform="translate(292.417673, 226.44426)"><path style="stroke:none" d="M 0.859375 0 L 0.859375 -5.71875 L 3.03125 -5.71875 C 3.382812 -5.71875 3.679688 -5.660156 3.921875 -5.546875 C 4.171875 -5.429688 4.351562 -5.269531 4.46875 -5.0625 C 4.59375 -4.851562 4.65625 -4.609375 4.65625 -4.328125 C 4.65625 -4.078125 4.585938 -3.851562 4.453125 -3.65625 C 4.328125 -3.457031 4.140625 -3.300781 3.890625 -3.1875 L 3.890625 -3.109375 C 4.265625 -3.015625 4.550781 -2.84375 4.75 -2.59375 C 4.945312 -2.34375 5.046875 -2.03125 5.046875 -1.65625 C 5.046875 -1.125 4.890625 -0.710938 4.578125 -0.421875 C 4.265625 -0.140625 3.800781 0 3.1875 0 Z M 3 -3.3125 C 3.3125 -3.3125 3.554688 -3.394531 3.734375 -3.5625 C 3.910156 -3.726562 4 -3.957031 4 -4.25 C 4 -4.550781 3.910156 -4.773438 3.734375 -4.921875 C 3.566406 -5.078125 3.320312 -5.15625 3 -5.15625 L 1.53125 -5.15625 L 1.53125 -3.3125 Z M 3.140625 -0.5625 C 3.953125 -0.5625 4.359375 -0.925781 4.359375 -1.65625 C 4.359375 -2.394531 3.953125 -2.765625 3.140625 -2.765625 L 1.53125 -2.765625 L 1.53125 -0.5625 Z M 3.140625 -0.5625 "/></g></g><g style="fill:#000000;fill-opacity:1;"><g transform="translate(303.98299, 226.44426)"><path style="stroke:none" d="M 2.5 0.078125 C 2.132812 0.078125 1.8125 0.03125 1.53125 -0.0625 C 1.25 -0.164062 1.007812 -0.296875 0.8125 -0.453125 C 0.625 -0.609375 0.484375 -0.78125 0.390625 -0.96875 L 0.765625 -1.421875 L 0.859375 -1.421875 C 1.210938 -0.828125 1.757812 -0.53125 2.5 -0.53125 C 2.925781 -0.53125 3.242188 -0.617188 3.453125 -0.796875 C 3.660156 -0.972656 3.765625 -1.222656 3.765625 -1.546875 C 3.765625 -1.734375 3.726562 -1.890625 3.65625 -2.015625 C 3.59375 -2.148438 3.484375 -2.265625 3.328125 -2.359375 C 3.171875 -2.453125 2.953125 -2.53125 2.671875 -2.59375 L 2.015625 -2.765625 C 1.515625 -2.878906 1.144531 -3.066406 0.90625 -3.328125 C 0.675781 -3.585938 0.5625 -3.921875 0.5625 -4.328125 C 0.5625 -4.609375 0.632812 -4.859375 0.78125 -5.078125 C 0.925781 -5.304688 1.140625 -5.484375 1.421875 -5.609375 C 1.703125 -5.734375 2.035156 -5.796875 2.421875 -5.796875 C 2.847656 -5.796875 3.207031 -5.734375 3.5 -5.609375 C 3.800781 -5.492188 4.039062 -5.3125 4.21875 -5.0625 L 3.890625 -4.625 L 3.796875 -4.625 C 3.628906 -4.820312 3.429688 -4.96875 3.203125 -5.0625 C 2.984375 -5.15625 2.722656 -5.203125 2.421875 -5.203125 C 2.023438 -5.203125 1.722656 -5.125 1.515625 -4.96875 C 1.316406 -4.820312 1.21875 -4.613281 1.21875 -4.34375 C 1.21875 -4.082031 1.289062 -3.875 1.4375 -3.71875 C 1.59375 -3.570312 1.847656 -3.457031 2.203125 -3.375 L 2.875 -3.203125 C 3.4375 -3.078125 3.835938 -2.878906 4.078125 -2.609375 C 4.328125 -2.335938 4.453125 -1.992188 4.453125 -1.578125 C 4.453125 -1.253906 4.378906 -0.96875 4.234375 -0.71875 C 4.097656 -0.46875 3.878906 -0.269531 3.578125 -0.125 C 3.285156 0.0078125 2.925781 0.078125 2.5 0.078125 Z M 2.5 0.078125 "/></g></g></g></svg>